HIERARCHY
ROOT RootJoint
{
    OFFSET   0.000000   0.000000   0.000000
    CHANNELS 6 Xposition Yposition Zposition Xrotation Yrotation Zrotation
    JOINT pelvis_lowerback
    {
        OFFSET   0.000000   0.093605   0.000000
        CHANNELS 3 Xrotation Yrotation Zrotation
        JOINT lowerback_torso
        {
            OFFSET   0.000000   0.100000   0.000000
            CHANNELS 3 Xrotation Yrotation Zrotation
            JOINT torso_head
            {
                OFFSET   0.000000   0.282350   0.000000
                CHANNELS 3 Xrotation Yrotation Zrotation
                End Site
                {
                    OFFSET   0.000000   0.192650   0.000000
                }
            }
            JOINT rTorso_Clavicle
            {
                OFFSET  -0.001000   0.157500   0.000000
                CHANNELS 3 Xrotation Yrotation Zrotation
                JOINT rShoulder
                {
                    OFFSET  -0.117647   0.000000   0.000000
                    CHANNELS 3 Xrotation Yrotation Zrotation
                    JOINT rElbow
                    {
                        OFFSET  -0.245000   0.000000   0.000000
                        CHANNELS 3 Xrotation Yrotation Zrotation
                        JOINT rWrist
                        {
                            OFFSET  -0.240000   0.000000   0.000000
                            CHANNELS 3 Xrotation Yrotation Zrotation
                            End Site
                            {
                                OFFSET  -0.116353  -0.002500   0.000000
                            }
                        }
                    }
                }
            }
            JOINT lTorso_Clavicle
            {
                OFFSET   0.001000   0.157500   0.000000
                CHANNELS 3 Xrotation Yrotation Zrotation
                JOINT lShoulder
                {
                    OFFSET   0.117647   0.000000   0.000000
                    CHANNELS 3 Xrotation Yrotation Zrotation
                    JOINT lElbow
                    {
                        OFFSET   0.245000   0.000000   0.000000
                        CHANNELS 3 Xrotation Yrotation Zrotation
                        JOINT lWrist
                        {
                            OFFSET   0.240000   0.000000   0.000000
                            CHANNELS 3 Xrotation Yrotation Zrotation
                            End Site
                            {
                                OFFSET   0.116353  -0.002500   0.000000
                            }
                        }
                    }
                }
            }
        }
    }
    JOINT rHip
    {
        OFFSET  -0.100000  -0.051395   0.000000
        CHANNELS 3 Xrotation Yrotation Zrotation
        JOINT rKnee
        {
            OFFSET   0.000000  -0.410000   0.000000
            CHANNELS 3 Xrotation Yrotation Zrotation
            JOINT rAnkle
            {
                OFFSET   0.000000  -0.390000   0.000000
                CHANNELS 3 Xrotation Yrotation Zrotation
                JOINT rToeJoint
                {
                    OFFSET   0.000000  -0.050000   0.130000
                    CHANNELS 3 Xrotation Yrotation Zrotation
                    End Site
                    {
                        OFFSET  -0.010000   0.002000   0.060000
                    }
                }
            }
        }
    }
    JOINT lHip
    {
        OFFSET   0.100000  -0.051395   0.000000
        CHANNELS 3 Xrotation Yrotation Zrotation
        JOINT lKnee
        {
            OFFSET   0.000000  -0.410000   0.000000
            CHANNELS 3 Xrotation Yrotation Zrotation
            JOINT lAnkle
            {
                OFFSET   0.000000  -0.390000   0.000000
                CHANNELS 3 Xrotation Yrotation Zrotation
                JOINT lToeJoint
                {
                    OFFSET   0.000000  -0.050000   0.130000
                    CHANNELS 3 Xrotation Yrotation Zrotation
                    End Site
                    {
                        OFFSET   0.010000   0.002000   0.060000
                    }
                }
            }
        }
    }
}
MOTION
Frames: 17
Frame Time:   0.008333
 -2.335356   0.898367   4.827124  -0.711092   5.339379   0.883627   3.887903   4.843042   1.210227  -0.679936   0.408427   1.445851  -3.943561   0.309294   2.855601   2.821944  -1.068210   7.361767   9.256824  15.330253  45.716573  -0.000928  22.078415  -0.000038   9.842946   2.573856   1.439395   2.745854   3.827201  -9.988149  13.989989 -10.370604 -51.066254   0.000316 -16.203306   0.000280   9.843867  -2.289396  -4.655291  17.126578  -1.113514  -0.860912  11.127958   0.001837  -0.000287  -6.492526  -0.291015   0.407454 -32.476904  -0.002059   0.005220 -19.430237   0.123604  -0.147334  15.169691   0.002260  -0.005260  -2.054744   5.189042   0.070229  -0.188979  -0.000180  -0.000710
 -2.332663   0.899012   4.834168  -0.614307   5.117258   1.056912   3.760391   4.921326   0.964709  -0.691101   0.437033   1.439864  -3.928549   0.274493   2.899453   2.885823  -1.064016   7.454616   9.379102  15.339963  45.837931  -0.000866  22.007672  -0.000029   9.858165   2.561866   1.473033   2.736043   3.780021  -9.946179  13.850273 -10.368802 -50.989606   0.000289 -16.170430   0.000220   9.845526  -2.277165  -4.632099  16.831743  -0.988872  -1.280817  12.224313   0.003043  -0.000977  -5.657717  -0.256263   0.799230 -34.617411   0.001042   0.006886 -19.106792  -0.083991  -0.503004  15.277625   0.001919  -0.004707  -1.728223   5.182945   0.328780  -0.086671  -0.000318  -0.001044
 -2.330005   0.899832   4.841286  -0.541789   5.006381   1.194429   3.622963   4.948211   0.759356  -0.693923   0.430159   1.452801  -3.906622   0.239799   2.942231   2.958747  -1.075359   7.536629   9.502126  15.343705  45.959608  -0.000805  21.942326  -0.000024   9.872941   2.567920   1.530298   2.716214   3.727314  -9.887277  13.710916 -10.374451 -50.914445   0.000262 -16.147733   0.000179   9.843272  -2.309394  -4.610522  16.519647  -0.846223  -1.633559  13.419002   0.004396  -0.000539  -4.825955  -0.183260   1.017432 -36.335558   0.001738   0.004638 -18.702833  -0.311680  -0.840567  15.273180   0.001535  -0.003748  -1.481486   5.168785   0.586438  -0.001518  -0.000388  -0.001163
 -2.327379   0.900696   4.848469  -0.471558   4.982579   1.303381   3.469677   4.948982   0.580801  -0.706677   0.399405   1.478428  -3.886381   0.206800   2.983202   3.039701  -1.100839   7.609233   9.627016  15.339128  46.075937  -0.000745  21.878560  -0.000016   9.886888   2.569024   1.602263   2.690219   3.672355  -9.813593  13.576065 -10.382706 -50.834605   0.000239 -16.130141   0.000152   9.839572  -2.362691  -4.576003  16.226752  -0.705574  -1.932202  14.597223   0.005635   0.000457  -4.000202  -0.105138   1.231180 -37.467090   0.002298   0.002593 -18.280458  -0.528415  -1.156166  15.228654   0.001179  -0.002873  -1.276528   5.155719   0.830313   0.069996  -0.000409  -0.001139
 -2.324775   0.901539   4.855689  -0.396467   5.021051   1.394744   3.305423   4.936789   0.418859  -0.732052   0.356061   1.509312  -3.869819   0.175873   3.021690   3.123150  -1.133814   7.673175   9.750136  15.329317  46.184705  -0.000684  21.816733  -0.000004   9.900277   2.560797   1.679588   2.660015   3.616782  -9.729322  13.446776 -10.392037 -50.750221   0.000217 -16.115934   0.000133   9.835600  -2.425619  -4.524173  15.957535  -0.568102  -2.193465  15.731009   0.006688   0.001651  -3.189721  -0.022783   1.438919 -38.122640   0.002478   0.001206 -17.862283  -0.729981  -1.456475  15.172939   0.000878  -0.002183  -1.095526   5.144986   1.058180   0.132657  -0.000401  -0.001048
 -2.322184   0.902328   4.862922  -0.313955   5.104739   1.475965   3.135494   4.918660   0.267839  -0.768368   0.307247   1.540629  -3.856716   0.147010   3.057406   3.204517  -1.169115   7.729224   9.868199  15.317322  46.285099  -0.000621  21.757839   0.000015   9.913185   2.546491   1.755619   2.627057   3.561513  -9.638966  13.323371 -10.401940 -50.663290   0.000196 -16.104228   0.000119   9.872444  -2.496622  -4.456263  15.710929  -0.435275  -2.428536  16.812283   0.007530   0.002826  -2.399651   0.061340   1.639228 -38.395979   0.002269   0.000543 -17.457972  -0.916547  -1.746805  15.119444   0.000636  -0.001667  -0.929424   5.136450   1.270108   0.188713  -0.000377  -0.000929
 -2.319603   0.903045   4.870148  -0.222853   5.222366   1.551491   2.963974   4.898636   0.124666  -0.813188   0.257284   1.569671  -3.846426   0.120106   3.090361   3.280953  -1.203499   7.778273   9.979152  15.305235  46.377105  -0.000559  21.702615   0.000038   9.925594   2.530306   1.826391   2.592607   3.507148  -9.546392  13.206029 -10.412283 -50.576051   0.000175 -16.094474   0.000108   9.860833  -2.565798  -4.378001  15.484864  -0.308306  -2.644360  17.838714   0.008161   0.003871  -1.632908   0.145039   1.831235 -38.358064   0.001774   0.000507 -17.071981  -1.088926  -2.030365  15.074428   0.000451  -0.001288  -0.773363   5.129828   1.466780   0.239417  -0.000344  -0.000803
 -2.317144   0.904045   4.877022  -0.120725   5.191867   1.626952   2.808071   4.910399  -0.052593  -0.829571   0.266570   1.607345  -3.809933   0.110777   3.162735   3.311504  -1.200826   7.792447  10.076852  15.362049  46.514437  -0.000415  21.728958   0.000011   9.988759   2.477345   1.887108   2.585818   3.417418  -9.415096  13.087427 -10.455396 -50.500191  -0.000070 -16.216193   0.000086   9.857974  -2.548387  -4.311434  14.666983  -0.228394  -2.916395  19.829017   0.009777   0.002405  -0.741162   0.359762   2.172495 -38.843583   0.002290   0.000476 -16.576191  -1.230785  -2.292446  14.811024   0.000021  -0.000518  -0.750691   5.119983   1.804321   0.281353  -0.000355  -0.000730
 -2.314788   0.905101   4.883963  -0.068720   5.223269   1.684696   2.665762   4.882102  -0.221744  -0.825785   0.253574   1.651206  -3.763769   0.101048   3.232185   3.337243  -1.197730   7.803263  10.162297  15.423106  46.653206  -0.000300  21.762452  -0.000011  10.049929   2.478892   1.961588   2.568503   3.321874  -9.265261  12.968822 -10.502826 -50.418283  -0.000284 -16.337832   0.000065   9.853059  -2.571351  -4.244132  13.836218  -0.179579  -3.136341  21.922392   0.011037   0.001408   0.193938   0.553072   2.503101 -38.700786   0.001588   0.000338 -16.003646  -1.392135  -2.531737  14.500816  -0.000380   0.000037  -0.769737   5.103087   2.132205   0.303741  -0.000325  -0.000621
 -2.312500   0.906111   4.890986  -0.032335   5.308505   1.730816   2.513962   4.836455  -0.384354  -0.827238   0.223607   1.693817  -3.718450   0.091300   3.295764   3.366528  -1.202075   7.810429  10.245347  15.477908  46.785452  -0.000218  21.794412  -0.000025  10.107865   2.496629   2.041978   2.545531   3.226750  -9.105689  12.854149 -10.549458 -50.329927  -0.000459 -16.454167   0.000015   9.848364  -2.610772  -4.163266  13.050864  -0.138823  -3.321420  23.951544   0.012025   0.001191   1.134243   0.736214   2.820185 -37.919821  -0.000039   0.000117 -15.418079  -1.549285  -2.753568  14.195815  -0.000696   0.000294  -0.801435   5.085965   2.440880   0.319224  -0.000285  -0.000514
 -2.310261   0.907030   4.898058   0.001918   5.431333   1.773087   2.352631   4.784354  -0.544214  -0.841331   0.184967   1.730410  -3.677755   0.082025   3.353693   3.397552  -1.211241   7.813135  10.325865  15.526410  46.908258  -0.000163  21.823637  -0.000034  10.163168   2.514786   2.121149   2.518848   3.133858  -8.943161  12.744068 -10.594489 -50.238072  -0.000593 -16.564522  -0.000055   9.844542  -2.657593  -4.067708  12.317196  -0.099090  -3.487136  25.875202   0.012783   0.001469   2.062259   0.914601   3.122706 -36.625373  -0.002132   0.000132 -14.844282  -1.696805  -2.965592  13.913974  -0.000919   0.000350  -0.833341   5.070053   2.729096   0.331620  -0.000246  -0.000420
 -2.308062   0.907840   4.905145   0.039078   5.580162   1.816422   2.185614   4.731006  -0.703134  -0.867836   0.142869   1.758641  -3.642057   0.073339   3.406460   3.427385  -1.221922   7.811437  10.402095  15.570355  47.020697  -0.000127  21.850620  -0.000041  10.216117   2.530801   2.193987   2.489564   3.043698  -8.782840  12.638534 -10.638057 -50.145785  -0.000685 -16.668945  -0.000134   9.841595  -2.708966  -3.961096  11.633018  -0.058986  -3.642221  27.683264   0.013317   0.001977   2.968523   1.088186   3.409728 -34.931416  -0.004286   0.000522 -14.291898  -1.833888  -3.172706  13.661413  -0.001056   0.000295  -0.860171   5.055554   2.997507   0.342366  -0.000211  -0.000339
 -2.305903   0.908534   4.912224   0.081355   5.747506   1.863413   2.016535   4.679128  -0.861618  -0.904563   0.100391   1.777743  -3.610793   0.065237   3.454566   3.454070  -1.231921   7.805911  10.472760  15.611249  47.122920  -0.000103  21.876013  -0.000047  10.266826   2.545981   2.257744   2.458602   2.956527  -8.628315  12.537466 -10.680369 -50.055539  -0.000740 -16.767643  -0.000212   9.839354  -2.763891  -3.847981  10.994647  -0.018456  -3.791240  29.374995   0.013634   0.002553   3.847584   1.255828   3.680793 -32.926143  -0.006202   0.001282 -13.764690  -1.960805  -3.377469  13.439242  -0.001124   0.000189  -0.879952   5.042430   3.247257   0.352093  -0.000180  -0.000272
 -2.303679   0.909376   4.918844   0.104454   5.660477   1.946304   1.950300   4.659972  -0.996854  -0.946242   0.139509   1.768384  -3.576192   0.037823   3.502587   3.437048  -1.170422   7.788362  10.519729  15.737494  47.176305  -0.000095  22.006315  -0.000113  10.361510   2.497731   2.293196   2.477468   2.845717  -8.481328  12.431947 -10.774270 -49.963534  -0.001051 -17.023593   0.000097   9.844918  -2.708412  -3.767478   9.926132  -0.101014  -4.119288  32.051322   0.012885  -0.005792   4.201717   1.132166   3.940767 -30.082286  -0.002468  -0.013860 -13.098951  -1.994574  -3.593121  12.999918  -0.001476   0.000659  -0.943020   5.017809   3.609347   0.409180  -0.000258  -0.000301
 -2.301507   0.910263   4.925403   0.101776   5.564910   1.996042   1.894584   4.604849  -1.083194  -0.974426   0.161389   1.780769  -3.532842   0.009034   3.550545   3.399978  -1.097123   7.761904  10.545954  15.869924  47.220049  -0.000104  22.140139  -0.000090  10.453022   2.512203   2.301039   2.480813   2.725971  -8.339384  12.320309 -10.875203 -49.879129  -0.001335 -17.272929   0.000453   9.846207  -2.706339  -3.699256   8.865076  -0.192357  -4.435456  34.676100   0.011585  -0.013228   4.538836   1.012542   4.183630 -27.492147  -0.000431  -0.025595 -12.389228  -2.049839  -3.769031  12.526165  -0.001782   0.001131  -1.037316   4.987869   3.956375   0.453280  -0.000290  -0.000312
 -2.299402   0.911132   4.931956   0.092186   5.476733   2.015024   1.831135   4.532136  -1.136737  -1.006979   0.164459   1.813400  -3.489459  -0.019099   3.598612   3.361170  -1.027553   7.733342  10.566661  15.996150  47.259392  -0.000117  22.268354  -0.000017  10.539355   2.553233   2.296310   2.471997   2.602201  -8.197946  12.206559 -10.977328 -49.795592  -0.001594 -17.510852   0.000745   9.845782  -2.733965  -3.626293   7.845106  -0.273424  -4.732604  37.137914   0.010176  -0.018652   4.854489   0.901452   4.410837 -25.122003   0.000340  -0.033542 -11.676204  -2.111552  -3.907501  12.059211  -0.002000   0.001447  -1.143763   4.957038   4.284281   0.489963  -0.000296  -0.000305
 -2.297365   0.911946   4.938522   0.079839   5.397280   2.011284   1.758555   4.449302  -1.168407  -1.047518   0.152988   1.860162  -3.449246  -0.045934   3.645629   3.325890  -0.964762   7.705778  10.586409  16.113488  47.296399  -0.000132  22.388590   0.000077  10.621444   2.601088   2.288959   2.454165   2.477692  -8.056299  12.093152 -11.078048 -49.710998  -0.001815 -17.736604   0.000955   9.844864  -2.779227  -3.541422   6.871748  -0.342715  -5.016634  39.431624   0.008856  -0.022329   5.148892   0.798429   4.623358 -22.952713   0.000407  -0.038432 -10.972461  -2.175090  -4.017066  11.614781  -0.002130   0.001615  -1.252580   4.926436   4.592945   0.521934  -0.000289  -0.000289
